HIERARCHY
ROOT root     
{
	OFFSET 0.0000 0.0000 0.0000
	CHANNELS 6 Xposition Yposition Zposition Zrotation Yrotation Xrotation
	JOINT pelvis   
	{
		OFFSET 0.0000 0.0000 0.0000
		CHANNELS 3 Zrotation Yrotation Xrotation
		JOINT thorax   
		{
			OFFSET 0.0000 23.0750 -5.0000
			CHANNELS 3 Zrotation Yrotation Xrotation
			JOINT rclavicle
			{
				OFFSET 0.0000 28.0009 0.0000
				CHANNELS 3 Zrotation Yrotation Xrotation
				JOINT rhumerus 
				{
					OFFSET -18.5725 5.5939 0.0000
					CHANNELS 3 Zrotation Yrotation Xrotation
					JOINT rradius  
					{
						OFFSET -24.8459 0.0000 0.0000
						CHANNELS 3 Zrotation Yrotation Xrotation
						JOINT rhand    
						{
							OFFSET -24.5477 0.0000 0.0000
							CHANNELS 3 Zrotation Yrotation Xrotation
							End Site
							{
								OFFSET -8.1826 0.0000 0.0000
							}
						}
					}
				}
			}
			JOINT lclavicle
			{
				OFFSET 0.0000 28.0009 0.0000
				CHANNELS 3 Zrotation Yrotation Xrotation
				JOINT lhumerus 
				{
					OFFSET 18.5725 5.5939 0.0000
					CHANNELS 3 Zrotation Yrotation Xrotation
					JOINT lradius  
					{
						OFFSET 24.8459 0.0000 0.0000
						CHANNELS 3 Zrotation Yrotation Xrotation
						JOINT lhand    
						{
							OFFSET 24.5477 0.0000 0.0000
							CHANNELS 3 Zrotation Yrotation Xrotation
							End Site
							{
								OFFSET 8.1826 0.0000 0.0000
							}
						}
					}
				}
			}
			JOINT head     
			{
				OFFSET 0.0000 35.2030 0.0000
				CHANNELS 3 Zrotation Yrotation Xrotation
				End Site
				{
					OFFSET 0.0000 11.7343 0.0000
				}
			}
		}
		JOINT rfemur   
		{
			OFFSET -8.2817 0.0000 0.0000
			CHANNELS 3 Zrotation Yrotation Xrotation
			JOINT rtibia   
			{
				OFFSET 0.0000 -43.3627 0.0000
				CHANNELS 3 Zrotation Yrotation Xrotation
				JOINT rfoot    
				{
					OFFSET 0.0000 -38.2947 0.0000
					CHANNELS 3 Zrotation Yrotation Xrotation
					JOINT rtoes    
					{
						OFFSET 0.0000 0.0000 16.6054
						CHANNELS 3 Zrotation Yrotation Xrotation
						End Site
						{
							OFFSET 0.0000 0.0000 5.5351
						}
					}
				}
			}
		}
		JOINT lfemur   
		{
			OFFSET 8.2817 0.0000 0.0000
			CHANNELS 3 Zrotation Yrotation Xrotation
			JOINT ltibia   
			{
				OFFSET 0.0000 -43.3627 0.0000
				CHANNELS 3 Zrotation Yrotation Xrotation
				JOINT lfoot    
				{
					OFFSET 0.0000 -38.2947 0.0000
					CHANNELS 3 Zrotation Yrotation Xrotation
					JOINT ltoes    
					{
						OFFSET 0.0000 0.0000 16.6054
						CHANNELS 3 Zrotation Yrotation Xrotation
						End Site
						{
							OFFSET 0.0000 0.0000 5.5351
						}
					}
				}
			}
		}
	}
}
MOTION
Frames: 23
Frame Time: .0333333
-45.476 75.177 -5.8753 -172.836 83.5387 -147.129 0 -0 0 0.217455 -14.0387 19.3479 14.1577 -17.9143 0.000110613 46.6024 -28.9153 23.2539 -6.18555e-06 84.4794 -6.26171e-06 1.90713 2.07875 0.0346011 -4.14106 13.4642 2.40872e-05 -46.2097 1.67556 10.6353 -180 -71.8283 180 -8.05621 5.17391 -0.364595 6.56915 -1.64645 -19.834 14.2245 -10.8089 -68.184 -0 -0 23.0939 -1.72577e-05 -11.7961 4.74102 -0.988908 2.39256e-06 -45.6227 -0.122814 15.5072 -21.4178 -0 -0 53.0295 -5.68079e-06 5.92717 -18.414 -1.87827 1.33791e-05 -64.5098 
-44.173 75.084 -5.9407 -174.167 83.4053 -148.456 0 -0 0 1.40363 -14.0198 19.1469 14.1005 -17.8641 8.46399e-06 46.9022 -28.9422 22.2641 -6.27324e-06 84.5602 -6.3494e-06 1.8743 2.13674 0.0350008 -4.67583 13.8721 8.64206e-06 -47.2535 2.80125 10.7566 -180 -72.1622 180 -7.96457 5.05186 -0.351901 6.03314 -1.96377 -20.3912 14.1933 -11.1795 -68.7493 -0 -0 25.3912 -1.67721e-05 -11.6301 5.27775 -1.0846 5.18137e-06 -45.8331 0.128947 14.7495 -19.9762 -0 -0 51.8855 2.6405e-05 6.24216 -17.7953 -1.91463 -2.19151e-05 -65.0904 
-42.867 74.998 -6.0018 -175.239 83.3544 -149.5 0 -0 0 2.5504 -13.9471 18.946 14.0914 -17.7706 0.000129511 47.2366 -28.8572 21.21 -3.31923e-06 84.5319 -3.017e-06 1.80848 2.1731 0.0342993 -5.24351 14.2841 -1.31256e-05 -48.2721 3.97376 10.8061 -180 -72.5819 180 -7.73703 4.88433 -0.330499 5.52467 -2.26293 -20.9342 14.1255 -11.477 -69.3807 -0 -0 27.796 -7.66266e-06 -11.4389 5.88406 -1.18829 7.71178e-06 -45.864 0.341644 14.0133 -18.5596 -0 -0 50.7183 2.33556e-05 6.5606 -17.0724 -1.93379 1.72756e-05 -65.8021 
-41.561 74.92 -6.055 -176.027 83.3957 -150.24 0 -0 0 3.64983 -13.8211 18.7545 14.1321 -17.6322 -0.000179957 47.6034 -28.6533 20.1013 -2.29787e-06 84.4119 -2.08415e-06 1.70416 2.18837 0.0325985 -5.84096 14.6914 -1.03469e-05 -49.2567 5.19249 10.7781 -180 -73.0816 180 -7.38111 4.67588 -0.301798 5.04906 -2.53145 -21.4458 14.0273 -11.6906 -70.0431 -0 -0 30.2568 6.92816e-06 -11.2089 6.52442 -1.28994 -1.89844e-05 -45.6317 0.521391 13.3127 -17.1652 -0 -0 49.5313 -8.75018e-06 6.87767 -16.249 -1.93304 -1.59291e-05 -66.6684 
-40.253 74.85 -6.0964 -176.517 83.523 -150.67 0 -0 0 4.69932 -13.6478 18.5801 14.2197 -17.447 -3.51226e-06 47.9938 -28.3277 18.9453 -2.82994e-06 84.196 -3.13218e-06 1.55589 2.18532 0.0296997 -6.46339 15.0858 9.11405e-06 -50.2075 6.45256 10.6692 -180 -73.6703 180 -6.90893 4.43566 -0.2679 4.61031 -2.75915 -21.9055 13.9128 -11.8207 -70.7002 -0 -0 32.7208 8.69629e-06 -10.927 7.15265 -1.377 -4.02113e-06 -45.0435 0.678262 12.6553 -15.7884 -0 -0 48.327 3.61166e-05 7.1866 -15.3267 -1.909 -8.79204e-06 -67.6865 
-38.946 74.788 -6.1229 -176.664 83.7306 -150.745 0 -0 0 5.69961 -13.4378 18.4268 14.3545 -17.2194 4.06725e-05 48.402 -27.8805 17.7565 -2.318e-06 83.8827 -2.57978e-06 1.35844 2.16919 0.0257008 -7.10361 15.4592 3.45147e-07 -51.1266 7.74288 10.4796 -180 -74.3586 180 -6.33685 4.17495 -0.2312 4.21162 -2.93959 -22.2884 13.7959 -11.8694 -71.3192 -0 -0 35.1398 -5.82463e-06 -10.5827 7.71193 -1.43618 5.0913e-06 -44.0038 0.822032 12.0451 -14.4306 -0 -0 47.1116 -2.58782e-05 7.47804 -14.3113 -1.85846 -2.16902e-05 -68.827 
-37.641 74.734 -6.1315 -176.456 83.9879 -150.462 0 -0 0 6.657 -13.2017 18.2945 14.5338 -16.9566 -2.92464e-05 48.8166 -27.313 16.5467 -0 83.4765 -0 1.10789 2.14713 0.0208001 -7.75051 15.8058 -1.42155e-05 -52.0217 9.04377 10.2142 -180 -75.1634 180 -5.68261 3.90879 -0.1941 3.85594 -3.07053 -22.572 13.689 -11.8439 -71.8717 -0 -0 37.4684 -5.17955e-06 -10.1794 8.14293 -1.45687 9.05124e-06 -42.418 0.963816 11.4787 -13.0989 -0 -0 45.8982 1.31143e-06 7.74063 -13.2042 -1.77837 2.26922e-05 -70.0245 
-36.339 74.688 -6.121 -175.879 84.2877 -149.8 0 -0 0 7.5747 -12.9545 18.1797 14.7549 -16.6688 -4.9342e-05 49.2276 -26.6331 15.3305 -2.00984e-06 82.9956 -2.27176e-06 0.801504 2.12734 0.0149005 -8.39052 16.1183 -1.07043e-05 -52.8983 10.3331 9.88572 -180 -76.0933 180 -4.96517 3.65253 -0.158401 3.54743 -3.15563 -22.7353 13.6043 -11.7626 -72.3361 -0 -0 39.6773 6.37637e-06 -9.72158 8.38587 -1.43136 -2.35077e-05 -40.1963 1.10932 10.9505 -11.8026 -0 -0 44.7057 1.10721e-05 7.96353 -12.0109 -1.66747 2.60923e-05 -71.189 
-35.043 74.649 -6.0912 -174.966 84.6003 -148.794 0 -0 0 8.45756 -12.7099 18.0783 15.0167 -16.3678 -4.16458e-06 49.6283 -25.8496 14.1199 -1.51357e-06 82.4522 -1.72746e-06 0.438197 2.11787 0.0080997 -9.00673 16.3944 -1.3126e-05 -53.7641 11.5831 9.51003 -180 -77.1797 180 -4.20248 3.42242 -0.125604 3.29067 -3.20371 -22.7632 13.5476 -11.6439 -72.705 -0 -0 41.7473 3.11002e-06 -9.22559 8.39078 -1.35769 -7.34532e-06 -37.2619 1.26263 10.4492 -10.5561 -0 -0 43.5584 6.82731e-06 8.13573 -10.7392 -1.52586 2.92488e-05 -72.2075 
-33.755 74.617 -6.0431 -173.83 84.8904 -147.56 0 -0 0 9.30688 -12.4822 17.9803 15.3171 -16.0687 6.04904e-05 50.0093 -24.9773 12.9256 -2.27236e-06 81.8338 -1.96971e-06 0.0186997 2.12591 0.000299995 -9.58215 16.6276 1.31972e-05 -54.6227 12.766 9.10695 -180 -78.4363 180 -3.41195 3.23243 -0.0963022 3.09105 -3.22828 -22.6492 13.5192 -11.5116 -72.9736 -0 -0 43.6702 -2.27568e-06 -8.7124 8.12059 -1.24014 -9.65262e-06 -33.564 1.42283 9.96256 -9.37884 -0 -0 42.4859 3.44863e-06 8.24994 -9.39894 -1.3564 -6.92397e-06 -72.9615 
-32.482 74.592 -5.9776 -172.603 85.1427 -146.22 0 -0 0 10.1263 -12.2827 17.8772 15.65 -15.782 0.000157093 50.3696 -24.0278 11.758 -1.49483e-06 81.1759 -1.28074e-06 -0.455511 2.16027 -0.00860014 -10.1027 16.8168 -1.47926e-05 -55.4738 13.8591 8.69832 -180 -79.8688 180 -2.60932 3.09126 -0.0703994 2.95318 -3.24303 -22.3944 13.5109 -11.3791 -73.1483 -0 -0 45.4344 6.66784e-07 -8.21872 7.57417 -1.09069 -4.54837e-06 -29.1941 1.58937 9.48438 -8.29979 -0 -0 41.5244 9.84954e-06 8.30215 -8.0084 -1.16461 -1.02067e-06 -73.3394 
-31.222 74.571 -5.9 -171.627 85.3402 -145.122 0 -0 0 10.9057 -12.1158 17.7707 16.0227 -15.5274 2.37868e-09 50.703 -23.0225 10.6149 -0 80.4882 -0 -0.97719 2.20996 -0.0188002 -10.5466 16.9612 1.25577e-05 -56.3183 14.826 8.31898 -180 -81.4992 180 -1.80883 3.01843 -0.0477012 2.88129 -3.27488 -22.0107 13.5171 -11.2841 -73.2443 -0 -0 47.0723 -3.06696e-07 -7.75212 6.72116 -0.912812 6.8889e-06 -23.9691 1.74944 8.99777 -7.33059 -0 -0 40.7055 3.92739e-06 8.29396 -6.58956 -0.958411 -1.65791e-06 -73.194 
-29.984 74.558 -5.8101 -171.071 85.4848 -144.417 0 -0 0 11.6511 -11.9855 17.6438 16.421 -15.3027 5.14297e-05 51.0167 -21.9767 9.50533 -1.30593e-06 79.7858 -1.09163e-06 -1.5436 2.28524 -0.0308006 -10.9135 17.0583 -8.0206e-05 -57.1404 15.6593 7.98375 -180 -83.3314 180 -1.02309 3.00781 -0.0268996 2.87722 -3.33186 -21.5209 13.5144 -11.2148 -73.275 -0 -0 48.5565 5.76756e-06 -7.3683 5.65347 -0.72991 -4.36834e-06 -18.4596 1.90344 8.51218 -6.51705 -0 -0 40.0744 8.06009e-06 8.23536 -5.17737 -0.748301 -1.07315e-06 -72.4607 
-28.773 74.552 -5.7119 -171.207 85.5584 -144.379 0 -0 0 12.3555 -11.888 17.5001 16.8441 -15.1134 0.000111024 51.3136 -20.9096 8.42755 -2.98331e-06 79.0727 -3.14027e-06 -2.14746 2.37707 -0.0445987 -11.1975 17.1032 -5.09573e-05 -57.9315 16.3435 7.71727 -180 -85.3507 180 -0.265198 3.06259 -0.00709991 2.93966 -3.43222 -20.9569 13.4883 -11.1836 -73.2597 -0 -0 49.9069 -4.08599e-06 -7.08259 4.41671 -0.548194 5.16006e-07 -12.859 2.03993 8.02843 -5.88064 -0 -0 39.6639 -3.17324e-06 8.14295 -3.81 -0.544702 -1.06937e-06 -71.0763 
-27.593 74.554 -5.6078 -172.134 85.5568 -145.104 0 -0 0 13.013 -11.8149 17.3394 17.2852 -14.9585 -2.66049e-05 51.6003 -19.8372 7.37867 -1.64114e-06 78.3708 -1.33773e-06 -2.78086 2.47704 -0.0601025 -11.4029 17.0969 -2.9519e-05 -58.6736 16.8726 7.53967 -180 -87.5471 180 0.453399 3.17962 0.0126 3.06409 -3.58556 -20.3523 13.4205 -11.183 -73.2204 -0 -0 51.1292 4.22366e-07 -6.91719 3.11252 -0.377406 3.43408e-07 -7.75795 2.15176 7.55759 -5.44986 -0 -0 39.5026 5.24013e-06 8.04089 -2.53131 -0.357505 -4.31792e-06 -69.0024 
-26.451 74.567 -5.4998 -173.835 85.5025 -146.565 0 -0 0 13.6216 -11.7549 17.1651 17.7325 -14.8297 4.43918e-05 51.8859 -18.7768 6.35767 -2.64063e-06 77.6891 -2.79779e-06 -3.43489 2.57485 -0.0771982 -11.5387 17.0396 2.3716e-05 -59.3508 17.247 7.46268 -180 -89.8037 180 1.12081 3.35153 0.0328 3.24219 -3.79673 -19.7459 13.2974 -11.2016 -73.1742 -0 -0 52.2384 3.38907e-07 -6.87887 1.82011 -0.219503 -1.42094e-07 -3.53917 2.23262 7.11457 -5.24608 -0 -0 39.6164 2.13245e-06 7.95771 -1.38476 -0.193596 2.2437e-06 -66.2583 
-25.349 74.593 -5.3892 -176.173 85.3922 -148.629 0 -0 0 14.1764 -11.694 16.9872 18.1768 -14.7148 3.31257e-06 52.1755 -17.74 5.36739 -0 77.0423 -0 -4.10096 2.66049 -0.0953014 -11.619 16.9314 -6.51811e-05 -59.9516 17.4767 7.49461 -4.54533e-06 -87.6269 5.1151e-06 1.72478 3.56889 0.0536995 3.46282 -4.06358 -19.1754 13.1162 -11.229 -73.1368 -0 -0 53.2467 -3.02278e-07 -6.96144 0.586399 -0.0715996 2.04764e-09 -0.323798 2.27725 6.71705 -5.28197 -0 -0 40.0101 -4.47694e-07 7.92634 -0.404207 -0.0562996 -5.84417e-08 -62.9494 
-24.292 74.633 -5.2763 -178.942 85.2658 -151.073 0 -0 0 14.677 -11.6193 16.816 18.6054 -14.5996 6.47019e-05 52.4761 -16.7354 4.41169 -1.01148e-06 76.4387 -7.96522e-07 -4.76971 2.72517 -0.113499 -11.6598 16.7747 7.65171e-05 -60.4604 17.5738 7.6378 -3.35265e-06 -85.0614 3.65479e-06 2.25243 3.8201 0.0751012 3.71296 -4.3761 -18.6697 12.8736 -11.2443 -73.1164 -0 -0 54.16 -2.35279e-07 -7.15501 -0.533595 -179.933 -2.00356e-08 -1.70426 2.28269 6.38445 -5.56435 -0 -0 40.6788 -4.41107e-07 7.98069 0.391202 0.0548004 -1.5848e-07 -59.282 
-23.281 74.691 -5.1615 178.079 85.124 -153.689 0 -0 0 15.1234 -11.5152 16.6682 19.0057 -14.4698 2.30589e-05 52.7893 -15.7752 3.49187 -1.38077e-06 75.8907 -1.07662e-06 -5.42773 2.75814 -0.130802 -11.6778 16.5712 -3.67516e-05 -60.8775 17.5599 7.88766 1.72672e-06 -82.444 -1.51281e-06 2.69595 4.0974 0.0965028 3.97628 -4.72485 -18.2481 12.5847 -11.2402 -73.1164 -0 -0 54.9895 1.65471e-06 -7.43191 -1.54982 -179.798 7.05059e-08 -2.89031 2.24861 6.13236 -6.08465 -0 -0 41.6071 -5.0106e-07 8.14627 0.983495 0.140804 1.19118e-06 -55.3043 
-22.317 74.766 -5.044 175.064 84.9809 -156.307 0 -0 0 15.5186 -11.3721 16.5546 19.3651 -14.3089 -1.87324e-06 53.1177 -14.8629 2.61864 -0 75.394 -0 -6.06361 2.7553 -0.146001 -11.6881 16.3211 -3.02341e-05 -61.1998 17.4629 8.23625 -1.54942e-06 -79.8161 1.85248e-06 3.04687 4.38825 0.116802 4.23834 -5.09233 -17.921 12.2633 -11.2017 -73.1367 -0 -0 55.7321 -9.54515e-06 -7.7695 -2.44393 -179.667 1.53945e-07 -3.29065 2.17624 5.9758 -6.83178 -0 -0 42.7645 1.0036e-06 8.44479 1.37292 0.203802 2.97963e-06 -51.1771 
-21.397 74.861 -4.9229 172.129 84.8705 -158.813 0 -0 0 15.8539 -11.1844 16.4946 19.6726 -14.1092 3.02953e-06 53.455 -13.9905 1.81508 -0 74.952 -0 -6.67008 2.71996 -0.158501 -11.7003 16.0409 5.23821e-05 -61.4309 17.3017 8.67259 -1.20504e-06 -77.2284 1.50878e-06 3.29052 4.6834 0.134602 4.49057 -5.45612 -17.6912 11.918 -11.1139 -73.1629 -0 -0 56.3815 -4.53594e-06 -8.1426 -3.2192 -179.54 -1.65424e-07 -3.07067 2.06402 5.92287 -7.78021 -0 -0 44.1046 6.09962e-06 8.89766 1.60964 0.251996 -1.01519e-06 -47.4802 
-20.518 74.975 -4.7975 169.354 84.8012 -161.133 0 -0 0 16.1422 -10.9468 16.491 19.9228 -13.8567 2.81744e-05 53.7945 -13.1669 1.08423 -9.7157e-07 74.5635 -1.27619e-06 -7.23076 2.65049 -0.167502 -11.7238 15.7213 -9.73041e-05 -61.5833 17.1174 9.17742 0 -74.7133 0 3.43273 4.97329 0.149101 4.71877 -5.80358 -17.5418 11.5743 -10.976 -73.1891 -0 -0 56.9322 -1.03373e-05 -8.52256 -3.89215 -179.417 -2.47002e-07 -2.47657 1.91856 5.97759 -8.90932 -0 -0 45.5927 -3.85175e-06 9.49568 1.67243 0.279697 -2.62953e-06 -43.8719 
-19.676 75.108 -4.6674 166.742 84.7787 -163.286 0 -0 0 16.3724 -10.6628 16.559 20.1129 -13.5538 4.43861e-05 54.1248 -12.3757 0.45291 -0 74.2279 -0 -7.73877 2.55709 -0.173002 -11.7559 15.3801 8.23601e-06 -61.6691 16.9271 9.74024 -1.17235e-06 -72.3125 1.60438e-06 3.46483 5.25253 0.159 4.92124 -6.11569 -17.4588 11.2418 -10.7847 -73.1959 -0 -0 57.38 -4.24014e-06 -8.88682 -4.48806 -179.299 -9.7781e-08 -1.72698 1.73909 6.13636 -10.1833 -0 -0 47.1751 -3.55721e-06 10.2356 1.61837 0.292193 -2.6101e-06 -40.8202 
